<mxfile host="app.diagrams.net" agent="Mozilla/5.0 (Windows NT 10.0; Win64; x64) AppleWebKit/537.36 (KHTML, like Gecko) Chrome/130.0.0.0 Safari/537.36" version="24.8.6">
  <diagram name="Page-1" id="KRbeqziuDmzUZZlvkrpT">
    <mxGraphModel grid="1" page="1" gridSize="10" guides="1" tooltips="1" connect="1" arrows="1" fold="1" pageScale="1" pageWidth="850" pageHeight="1100" math="0" shadow="0">
      <root>
        <mxCell id="0" />
        <mxCell id="1" parent="0" />
        <mxCell id="8uQgLkFTasSDDYScGkq6-5" value="" style="swimlane;startSize=0;" vertex="1" parent="1">
          <mxGeometry x="130" y="70" width="630" height="740" as="geometry" />
        </mxCell>
        <mxCell id="8uQgLkFTasSDDYScGkq6-6" value="Cadastra-se" style="ellipse;whiteSpace=wrap;html=1;" vertex="1" parent="8uQgLkFTasSDDYScGkq6-5">
          <mxGeometry x="365" y="100" width="120" height="80" as="geometry" />
        </mxCell>
        <mxCell id="8uQgLkFTasSDDYScGkq6-7" value="Registra um&lt;div&gt;&amp;nbsp;Chamado&lt;/div&gt;" style="ellipse;whiteSpace=wrap;html=1;" vertex="1" parent="8uQgLkFTasSDDYScGkq6-5">
          <mxGeometry x="180" y="250" width="120" height="80" as="geometry" />
        </mxCell>
        <mxCell id="wgGQMqrBeJAKAs1tU5wF-6" value="Descreve o&amp;nbsp;&lt;div&gt;Problema&lt;/div&gt;" style="ellipse;whiteSpace=wrap;html=1;" vertex="1" parent="8uQgLkFTasSDDYScGkq6-5">
          <mxGeometry x="260" y="170" width="120" height="80" as="geometry" />
        </mxCell>
        <mxCell id="wgGQMqrBeJAKAs1tU5wF-8" value="Atualiza Status do Chamado" style="ellipse;whiteSpace=wrap;html=1;" vertex="1" parent="8uQgLkFTasSDDYScGkq6-5">
          <mxGeometry x="180" y="340" width="120" height="80" as="geometry" />
        </mxCell>
        <mxCell id="wgGQMqrBeJAKAs1tU5wF-9" value="" style="endArrow=none;html=1;rounded=0;entryX=0;entryY=0.5;entryDx=0;entryDy=0;" edge="1" parent="8uQgLkFTasSDDYScGkq6-5" target="wgGQMqrBeJAKAs1tU5wF-8">
          <mxGeometry width="50" height="50" relative="1" as="geometry">
            <mxPoint x="-30" y="370" as="sourcePoint" />
            <mxPoint x="20" y="320" as="targetPoint" />
          </mxGeometry>
        </mxCell>
        <mxCell id="wgGQMqrBeJAKAs1tU5wF-1" value="Cliente" style="shape=umlActor;verticalLabelPosition=bottom;verticalAlign=top;html=1;outlineConnect=0;" vertex="1" parent="8uQgLkFTasSDDYScGkq6-5">
          <mxGeometry x="-100" y="140" width="50" height="90" as="geometry" />
        </mxCell>
        <mxCell id="wgGQMqrBeJAKAs1tU5wF-3" value="" style="endArrow=none;html=1;rounded=0;entryX=0;entryY=0.5;entryDx=0;entryDy=0;" edge="1" parent="8uQgLkFTasSDDYScGkq6-5" target="8uQgLkFTasSDDYScGkq6-6">
          <mxGeometry width="50" height="50" relative="1" as="geometry">
            <mxPoint x="-50" y="180" as="sourcePoint" />
            <mxPoint y="130" as="targetPoint" />
          </mxGeometry>
        </mxCell>
        <mxCell id="wgGQMqrBeJAKAs1tU5wF-4" value="" style="endArrow=none;html=1;rounded=0;entryX=0;entryY=0.5;entryDx=0;entryDy=0;" edge="1" parent="8uQgLkFTasSDDYScGkq6-5" target="8uQgLkFTasSDDYScGkq6-7">
          <mxGeometry width="50" height="50" relative="1" as="geometry">
            <mxPoint x="-30" y="340" as="sourcePoint" />
            <mxPoint y="160" as="targetPoint" />
          </mxGeometry>
        </mxCell>
        <mxCell id="wgGQMqrBeJAKAs1tU5wF-5" value="Colaborador" style="shape=umlActor;verticalLabelPosition=bottom;verticalAlign=top;html=1;outlineConnect=0;" vertex="1" parent="8uQgLkFTasSDDYScGkq6-5">
          <mxGeometry x="-90" y="310" width="50" height="90" as="geometry" />
        </mxCell>
        <mxCell id="wgGQMqrBeJAKAs1tU5wF-7" value="" style="endArrow=none;html=1;rounded=0;entryX=0;entryY=0.5;entryDx=0;entryDy=0;" edge="1" parent="8uQgLkFTasSDDYScGkq6-5" source="wgGQMqrBeJAKAs1tU5wF-1" target="wgGQMqrBeJAKAs1tU5wF-6">
          <mxGeometry width="50" height="50" relative="1" as="geometry">
            <mxPoint x="-40" y="230" as="sourcePoint" />
            <mxPoint x="10" y="180" as="targetPoint" />
          </mxGeometry>
        </mxCell>
        <mxCell id="wgGQMqrBeJAKAs1tU5wF-10" value="" style="endArrow=none;dashed=1;html=1;rounded=0;" edge="1" parent="8uQgLkFTasSDDYScGkq6-5" target="wgGQMqrBeJAKAs1tU5wF-11">
          <mxGeometry width="50" height="50" relative="1" as="geometry">
            <mxPoint x="310" y="370" as="sourcePoint" />
            <mxPoint x="360" y="320" as="targetPoint" />
          </mxGeometry>
        </mxCell>
        <mxCell id="wgGQMqrBeJAKAs1tU5wF-11" value="Aberto" style="ellipse;whiteSpace=wrap;html=1;" vertex="1" parent="8uQgLkFTasSDDYScGkq6-5">
          <mxGeometry x="380" y="370" width="100" height="60" as="geometry" />
        </mxCell>
        <mxCell id="wgGQMqrBeJAKAs1tU5wF-12" value="" style="endArrow=none;dashed=1;html=1;rounded=0;exitX=1;exitY=1;exitDx=0;exitDy=0;" edge="1" parent="8uQgLkFTasSDDYScGkq6-5" source="wgGQMqrBeJAKAs1tU5wF-8" target="wgGQMqrBeJAKAs1tU5wF-13">
          <mxGeometry width="50" height="50" relative="1" as="geometry">
            <mxPoint x="290" y="440" as="sourcePoint" />
            <mxPoint x="340" y="390" as="targetPoint" />
          </mxGeometry>
        </mxCell>
        <mxCell id="wgGQMqrBeJAKAs1tU5wF-13" value="Em andamento" style="ellipse;whiteSpace=wrap;html=1;" vertex="1" parent="8uQgLkFTasSDDYScGkq6-5">
          <mxGeometry x="360" y="440" width="100" height="60" as="geometry" />
        </mxCell>
        <mxCell id="wgGQMqrBeJAKAs1tU5wF-15" value="" style="endArrow=none;dashed=1;html=1;rounded=0;exitX=0.5;exitY=1;exitDx=0;exitDy=0;" edge="1" parent="8uQgLkFTasSDDYScGkq6-5" target="wgGQMqrBeJAKAs1tU5wF-16">
          <mxGeometry width="50" height="50" relative="1" as="geometry">
            <mxPoint x="250" y="430" as="sourcePoint" />
            <mxPoint x="240" y="430" as="targetPoint" />
          </mxGeometry>
        </mxCell>
        <mxCell id="wgGQMqrBeJAKAs1tU5wF-16" value="Resolvido" style="ellipse;whiteSpace=wrap;html=1;" vertex="1" parent="8uQgLkFTasSDDYScGkq6-5">
          <mxGeometry x="260" y="480" width="100" height="60" as="geometry" />
        </mxCell>
      </root>
    </mxGraphModel>
  </diagram>
</mxfile>
